M48
; DRILL file {KiCad 7.0.10} date Sat Nov  2 13:10:14 2024
; FORMAT={-:-/ absolute / metric / decimal}
; #@! TF.CreationDate,2024-11-02T13:10:14-06:00
; #@! TF.GenerationSoftware,Kicad,Pcbnew,7.0.10
; #@! TF.FileFunction,MixedPlating,1,4
FMAT,2
METRIC
; #@! TA.AperFunction,Plated,PTH,ViaDrill
T1C0.300
; #@! TA.AperFunction,Plated,PTH,ViaDrill
T2C0.500
; #@! TA.AperFunction,Plated,PTH,ComponentDrill
T3C0.650
; #@! TA.AperFunction,Plated,PTH,ComponentDrill
T4C1.000
; #@! TA.AperFunction,Plated,PTH,ComponentDrill
T5C1.020
; #@! TA.AperFunction,Plated,PTH,ComponentDrill
T6C1.100
; #@! TA.AperFunction,Plated,PTH,ComponentDrill
T7C1.300
; #@! TA.AperFunction,Plated,PTH,ComponentDrill
T8C1.727
; #@! TA.AperFunction,Plated,PTH,ComponentDrill
T9C2.410
; #@! TA.AperFunction,Plated,PTH,ComponentDrill
T10C2.700
; #@! TA.AperFunction,Plated,PTH,ComponentDrill
T11C4.500
; #@! TA.AperFunction,NonPlated,NPTH,ComponentDrill
T12C1.020
%
G90
G05
T1
X80.4Y-79.075
X81.631Y-85.358
X81.936Y-87.238
X83.35Y-93.925
X84.578Y-85.231
X84.8Y-83.325
X87.176Y-128.826
X87.326Y-117.826
X87.326Y-120.826
X87.326Y-123.976
X87.376Y-126.776
X88.45Y-85.125
X89.27Y-86.875
X89.8Y-90.325
X89.926Y-129.126
X90.976Y-93.476
X91.176Y-75.626
X91.676Y-95.026
X91.776Y-96.476
X92.226Y-97.876
X93.4Y-75.425
X94.25Y-79.675
X94.45Y-83.775
X94.47Y-81.935
X94.9Y-75.625
X95.6Y-80.965
X95.9Y-92.175
X95.95Y-85.275
X95.974Y-82.829
X97.295Y-75.73
X97.4Y-77.175
X97.601Y-90.526
X98.626Y-92.026
X98.876Y-88.376
X99.24Y-101.015
X100.176Y-73.126
X100.451Y-85.701
X100.95Y-82.175
X101.3Y-122.575
X101.876Y-85.276
X104.05Y-80.775
X104.05Y-83.225
X104.976Y-73.301
X109.0Y-122.425
X109.826Y-71.951
X110.65Y-126.175
X111.8Y-69.675
X111.95Y-71.225
X112.0Y-114.475
X112.65Y-68.375
X113.1Y-123.775
X113.7Y-126.275
X113.91Y-66.965
X114.75Y-100.975
X115.95Y-89.125
X125.075Y-100.85
X126.175Y-95.025
X128.5Y-75.225
X171.8Y-117.275
T2
X84.587Y-91.951
X86.701Y-75.376
X89.836Y-70.855
X95.026Y-115.126
X95.776Y-72.976
X99.8Y-96.025
X100.25Y-79.7
X100.326Y-88.475
X104.0Y-103.525
X106.4Y-89.275
X110.5Y-104.075
X111.05Y-64.025
X111.35Y-72.575
X111.5Y-62.575
X114.15Y-95.625
X124.55Y-91.325
X127.251Y-137.501
X135.15Y-77.425
X135.4Y-112.275
X137.25Y-110.825
X138.3Y-72.225
X143.1Y-62.825
X143.65Y-127.875
X144.65Y-70.275
X145.0Y-73.075
X147.75Y-123.075
X149.8Y-115.925
X152.55Y-118.325
X154.0Y-72.025
X158.05Y-62.525
X158.3Y-127.175
X162.0Y-72.855
X162.06Y-117.425
X165.25Y-110.575
X168.6Y-63.625
X174.3Y-70.425
T3
X82.786Y-71.356
X82.786Y-72.626
X84.056Y-71.356
X84.056Y-72.626
X85.326Y-71.356
X85.326Y-72.626
X86.596Y-71.356
X86.596Y-72.626
X87.866Y-71.356
X87.866Y-72.626
X103.5Y-61.405
X103.5Y-62.675
T4
X102.676Y-97.636
X102.676Y-100.176
X103.983Y-105.907
X103.983Y-108.447
X103.983Y-110.987
X103.983Y-113.527
X103.983Y-116.067
X103.983Y-118.607
X103.983Y-121.147
X106.777Y-138.261
X106.777Y-140.801
X107.819Y-126.658
X107.819Y-129.198
X107.819Y-131.738
X107.819Y-134.278
X112.01Y-140.705
X112.086Y-130.214
X113.81Y-49.275
X113.955Y-55.384
X114.11Y-61.425
X114.55Y-140.705
X114.626Y-130.214
X116.35Y-49.275
X116.495Y-55.384
X116.65Y-61.425
X117.09Y-140.705
X117.166Y-130.214
X119.592Y-108.093
X119.63Y-140.705
X119.706Y-130.214
X119.795Y-80.0
X122.132Y-108.093
X122.17Y-140.705
X122.246Y-130.214
X122.335Y-80.0
X124.672Y-108.093
X124.71Y-140.705
X124.786Y-130.214
X124.875Y-80.0
X125.76Y-64.085
X125.76Y-66.625
X125.76Y-69.165
X125.76Y-71.705
X127.25Y-140.705
X127.326Y-130.214
X129.79Y-140.705
X129.866Y-130.214
T5
X85.314Y-104.304
X85.314Y-107.304
X85.67Y-61.914
X85.67Y-64.914
X91.701Y-135.976
X91.701Y-138.976
X91.968Y-52.754
X94.701Y-135.976
X94.701Y-138.976
X94.968Y-52.754
X97.701Y-135.976
X97.701Y-138.976
X104.034Y-52.696
X107.034Y-52.696
X149.06Y-54.725
X149.9Y-136.625
X152.06Y-54.725
X152.9Y-136.625
T6
X93.735Y-100.979
X93.735Y-111.139
T7
X93.886Y-60.326
X98.966Y-60.326
X113.756Y-79.737
X113.756Y-84.817
X113.837Y-106.88
X113.837Y-111.96
X135.327Y-103.011
X135.327Y-108.091
X135.7Y-81.81
X135.7Y-86.89
T8
X115.052Y-117.34
X115.052Y-120.642
X128.514Y-117.34
X128.514Y-120.642
X171.293Y-77.306
X171.293Y-90.768
X171.446Y-99.303
X171.446Y-112.765
X174.595Y-77.306
X174.595Y-90.768
X174.748Y-99.303
X174.748Y-112.765
T9
X83.164Y-105.804
X83.52Y-63.414
X87.464Y-105.804
X87.82Y-63.414
X89.551Y-137.476
X93.468Y-50.604
X93.468Y-54.903
X99.851Y-137.476
X105.534Y-50.547
X105.534Y-54.846
X150.56Y-52.575
X150.56Y-56.875
X151.4Y-134.475
X151.4Y-138.775
T10
X83.336Y-139.262
X83.435Y-50.789
X171.801Y-139.384
X171.878Y-50.89
T11
X140.509Y-94.883
X147.709Y-94.883
T12
X82.314Y-108.244
X82.67Y-65.854
X88.314Y-108.244
X88.67Y-65.854
X88.701Y-139.916
X91.028Y-49.754
X91.028Y-55.753
X100.701Y-139.916
X103.094Y-49.697
X103.094Y-55.696
X148.96Y-133.625
X148.96Y-139.625
X153.0Y-51.725
X153.0Y-57.725
M30
