%TF.GenerationSoftware,KiCad,Pcbnew,7.0.10*%
%TF.CreationDate,2024-11-01T12:43:17-06:00*%
%TF.ProjectId,RevA_Mecanismos,52657641-5f4d-4656-9361-6e69736d6f73,rev?*%
%TF.SameCoordinates,Original*%
%TF.FileFunction,Paste,Top*%
%TF.FilePolarity,Positive*%
%FSLAX46Y46*%
G04 Gerber Fmt 4.6, Leading zero omitted, Abs format (unit mm)*
G04 Created by KiCad (PCBNEW 7.0.10) date 2024-11-01 12:43:17*
%MOMM*%
%LPD*%
G01*
G04 APERTURE LIST*
G04 Aperture macros list*
%AMRoundRect*
0 Rectangle with rounded corners*
0 $1 Rounding radius*
0 $2 $3 $4 $5 $6 $7 $8 $9 X,Y pos of 4 corners*
0 Add a 4 corners polygon primitive as box body*
4,1,4,$2,$3,$4,$5,$6,$7,$8,$9,$2,$3,0*
0 Add four circle primitives for the rounded corners*
1,1,$1+$1,$2,$3*
1,1,$1+$1,$4,$5*
1,1,$1+$1,$6,$7*
1,1,$1+$1,$8,$9*
0 Add four rect primitives between the rounded corners*
20,1,$1+$1,$2,$3,$4,$5,0*
20,1,$1+$1,$4,$5,$6,$7,0*
20,1,$1+$1,$6,$7,$8,$9,0*
20,1,$1+$1,$8,$9,$2,$3,0*%
G04 Aperture macros list end*
%ADD10RoundRect,0.200000X-0.200000X-0.275000X0.200000X-0.275000X0.200000X0.275000X-0.200000X0.275000X0*%
%ADD11RoundRect,0.218750X-0.218750X-0.256250X0.218750X-0.256250X0.218750X0.256250X-0.218750X0.256250X0*%
%ADD12R,3.180000X2.250000*%
%ADD13RoundRect,0.200000X-0.275000X0.200000X-0.275000X-0.200000X0.275000X-0.200000X0.275000X0.200000X0*%
%ADD14RoundRect,0.225000X-0.225000X-0.250000X0.225000X-0.250000X0.225000X0.250000X-0.225000X0.250000X0*%
%ADD15RoundRect,0.225000X0.225000X0.250000X-0.225000X0.250000X-0.225000X-0.250000X0.225000X-0.250000X0*%
%ADD16RoundRect,0.225000X0.250000X-0.225000X0.250000X0.225000X-0.250000X0.225000X-0.250000X-0.225000X0*%
%ADD17RoundRect,0.200000X0.200000X0.275000X-0.200000X0.275000X-0.200000X-0.275000X0.200000X-0.275000X0*%
%ADD18R,2.250000X3.180000*%
%ADD19RoundRect,0.200000X0.275000X-0.200000X0.275000X0.200000X-0.275000X0.200000X-0.275000X-0.200000X0*%
%ADD20R,1.041400X3.505200*%
%ADD21R,10.718800X7.569200*%
%ADD22RoundRect,0.218750X0.218750X0.256250X-0.218750X0.256250X-0.218750X-0.256250X0.218750X-0.256250X0*%
%ADD23RoundRect,0.225000X-0.250000X0.225000X-0.250000X-0.225000X0.250000X-0.225000X0.250000X0.225000X0*%
%ADD24R,1.200000X0.450000*%
%ADD25R,10.718800X12.039600*%
%ADD26R,1.200000X1.400000*%
%ADD27R,1.000000X1.400000*%
%ADD28RoundRect,0.150000X-0.825000X-0.150000X0.825000X-0.150000X0.825000X0.150000X-0.825000X0.150000X0*%
%ADD29R,1.150000X0.800000*%
%ADD30R,0.600000X1.000000*%
%ADD31RoundRect,0.150000X-0.150000X0.587500X-0.150000X-0.587500X0.150000X-0.587500X0.150000X0.587500X0*%
%ADD32R,0.533400X1.981200*%
%ADD33RoundRect,0.075000X0.075000X-0.700000X0.075000X0.700000X-0.075000X0.700000X-0.075000X-0.700000X0*%
%ADD34RoundRect,0.075000X0.700000X-0.075000X0.700000X0.075000X-0.700000X0.075000X-0.700000X-0.075000X0*%
%ADD35RoundRect,0.250000X2.475000X-0.712500X2.475000X0.712500X-2.475000X0.712500X-2.475000X-0.712500X0*%
%ADD36R,1.600000X1.400000*%
G04 APERTURE END LIST*
D10*
%TO.C,R34*%
X136175000Y-117675000D03*
X137825000Y-117675000D03*
%TD*%
D11*
%TO.C,D7*%
X83345100Y-118008500D03*
X84920100Y-118008500D03*
%TD*%
D12*
%TO.C,D19*%
X154250000Y-127827500D03*
X154250000Y-120917500D03*
%TD*%
D13*
%TO.C,R40*%
X116025000Y-90375000D03*
X116025000Y-92025000D03*
%TD*%
D14*
%TO.C,C3*%
X83523400Y-88558500D03*
X85073400Y-88558500D03*
%TD*%
%TO.C,C7*%
X96101400Y-93675700D03*
X97651400Y-93675700D03*
%TD*%
D10*
%TO.C,R39*%
X130050800Y-78579200D03*
X131700800Y-78579200D03*
%TD*%
D14*
%TO.C,C18*%
X119425000Y-76525000D03*
X120975000Y-76525000D03*
%TD*%
D10*
%TO.C,R29*%
X163460000Y-74675000D03*
X165110000Y-74675000D03*
%TD*%
%TO.C,R37*%
X129750000Y-112675000D03*
X131400000Y-112675000D03*
%TD*%
D15*
%TO.C,C4*%
X86651400Y-76575700D03*
X85101400Y-76575700D03*
%TD*%
D13*
%TO.C,R6*%
X80183600Y-87860500D03*
X80183600Y-89510500D03*
%TD*%
D14*
%TO.C,C2*%
X100200000Y-78500000D03*
X101750000Y-78500000D03*
%TD*%
D16*
%TO.C,C20*%
X126200000Y-92875000D03*
X126200000Y-91325000D03*
%TD*%
D17*
%TO.C,R16*%
X127734300Y-48751400D03*
X126084300Y-48751400D03*
%TD*%
%TO.C,R36*%
X172500400Y-68367600D03*
X170850400Y-68367600D03*
%TD*%
%TO.C,R17*%
X127723700Y-52250800D03*
X126073700Y-52250800D03*
%TD*%
D18*
%TO.C,D16*%
X135587800Y-121935100D03*
X142497800Y-121935100D03*
%TD*%
D16*
%TO.C,C5*%
X83028400Y-85294900D03*
X83028400Y-83744900D03*
%TD*%
D14*
%TO.C,C6*%
X100325800Y-87288500D03*
X101875800Y-87288500D03*
%TD*%
D17*
%TO.C,R26*%
X131349200Y-110871600D03*
X129699200Y-110871600D03*
%TD*%
D16*
%TO.C,C16*%
X116282000Y-98623900D03*
X116282000Y-97073900D03*
%TD*%
%TO.C,C13*%
X98676400Y-71800700D03*
X98676400Y-70250700D03*
%TD*%
D11*
%TO.C,D10*%
X83307600Y-127008500D03*
X84882600Y-127008500D03*
%TD*%
D19*
%TO.C,R10*%
X108400000Y-68675700D03*
X108400000Y-67025700D03*
%TD*%
D20*
%TO.C,Q6*%
X141909400Y-127371200D03*
D21*
X139369400Y-138419200D03*
D20*
X136829400Y-127371200D03*
%TD*%
D17*
%TO.C,R15*%
X127696800Y-55861900D03*
X126046800Y-55861900D03*
%TD*%
%TO.C,R19*%
X81300100Y-121008500D03*
X79650100Y-121008500D03*
%TD*%
D13*
%TO.C,R1*%
X80259800Y-83771100D03*
X80259800Y-85421100D03*
%TD*%
D15*
%TO.C,C15*%
X107426200Y-81408400D03*
X105876200Y-81408400D03*
%TD*%
D17*
%TO.C,R3*%
X97890000Y-101395000D03*
X96240000Y-101395000D03*
%TD*%
D14*
%TO.C,C23*%
X110325000Y-74025000D03*
X111875000Y-74025000D03*
%TD*%
D22*
%TO.C,D6*%
X130975000Y-52249200D03*
X129400000Y-52249200D03*
%TD*%
D18*
%TO.C,D14*%
X166291900Y-68301000D03*
X159381900Y-68301000D03*
%TD*%
D12*
%TO.C,D13*%
X154030000Y-62534600D03*
X154030000Y-69444600D03*
%TD*%
D11*
%TO.C,D12*%
X83307600Y-133008500D03*
X84882600Y-133008500D03*
%TD*%
D12*
%TO.C,D17*%
X147172000Y-62516100D03*
X147172000Y-69426100D03*
%TD*%
D10*
%TO.C,R35*%
X163597200Y-115482500D03*
X165247200Y-115482500D03*
%TD*%
D23*
%TO.C,C17*%
X118400000Y-97125000D03*
X118400000Y-98675000D03*
%TD*%
D24*
%TO.C,IC1*%
X101107800Y-69144100D03*
X101107800Y-69794100D03*
X101107800Y-70444100D03*
X101107800Y-71094100D03*
X103607800Y-71094100D03*
X103607800Y-70444100D03*
X103607800Y-69794100D03*
X103607800Y-69144100D03*
%TD*%
D16*
%TO.C,C22*%
X111650000Y-66775000D03*
X111650000Y-65225000D03*
%TD*%
D23*
%TO.C,C12*%
X100776400Y-117477500D03*
X100776400Y-119027500D03*
%TD*%
D17*
%TO.C,R33*%
X138325000Y-75675000D03*
X136675000Y-75675000D03*
%TD*%
D10*
%TO.C,R25*%
X170475800Y-122205400D03*
X172125800Y-122205400D03*
%TD*%
D17*
%TO.C,R21*%
X81300100Y-127008500D03*
X79650100Y-127008500D03*
%TD*%
D20*
%TO.C,U6*%
X147249200Y-74879100D03*
D25*
X144709200Y-83692900D03*
D20*
X142169200Y-74879100D03*
%TD*%
D13*
%TO.C,R2*%
X80386800Y-80379700D03*
X80386800Y-82029700D03*
%TD*%
D26*
%TO.C,Y1*%
X84450000Y-97875000D03*
X84450000Y-95675000D03*
X82750000Y-95675000D03*
X82750000Y-97875000D03*
%TD*%
D20*
%TO.C,Q5*%
X159821200Y-62890800D03*
D21*
X162361200Y-51842800D03*
D20*
X164901200Y-62890800D03*
%TD*%
D27*
%TO.C,Q1*%
X97376400Y-106425700D03*
X99276400Y-106425700D03*
X98326400Y-104225700D03*
%TD*%
D11*
%TO.C,D11*%
X83307600Y-130008500D03*
X84882600Y-130008500D03*
%TD*%
D28*
%TO.C,U8*%
X116325000Y-65790000D03*
X116325000Y-67060000D03*
X116325000Y-68330000D03*
X116325000Y-69600000D03*
X116325000Y-70870000D03*
X116325000Y-72140000D03*
X116325000Y-73410000D03*
X121275000Y-73410000D03*
X121275000Y-72140000D03*
X121275000Y-70870000D03*
X121275000Y-69600000D03*
X121275000Y-68330000D03*
X121275000Y-67060000D03*
X121275000Y-65790000D03*
%TD*%
D23*
%TO.C,C10*%
X80350000Y-96000000D03*
X80350000Y-97550000D03*
%TD*%
D22*
%TO.C,D4*%
X131075000Y-55849200D03*
X129500000Y-55849200D03*
%TD*%
D29*
%TO.C,Z1*%
X119725000Y-102150000D03*
X123225000Y-102150000D03*
%TD*%
D18*
%TO.C,D20*%
X166464900Y-121859400D03*
X159554900Y-121859400D03*
%TD*%
D17*
%TO.C,R31*%
X137750000Y-115675000D03*
X136100000Y-115675000D03*
%TD*%
%TO.C,R38*%
X172075000Y-120275000D03*
X170425000Y-120275000D03*
%TD*%
D30*
%TO.C,Q2*%
X124800000Y-96300000D03*
X122900000Y-96300000D03*
X123850000Y-98700000D03*
%TD*%
D10*
%TO.C,R28*%
X136675000Y-73617600D03*
X138325000Y-73617600D03*
%TD*%
D16*
%TO.C,C21*%
X114150000Y-98675000D03*
X114150000Y-97125000D03*
%TD*%
D13*
%TO.C,R5*%
X88716100Y-95937700D03*
X88716100Y-97587700D03*
%TD*%
D20*
%TO.C,Q4*%
X165201200Y-127345800D03*
D21*
X162661200Y-138393800D03*
D20*
X160121200Y-127345800D03*
%TD*%
D17*
%TO.C,R4*%
X98395400Y-109386500D03*
X96745400Y-109386500D03*
%TD*%
D20*
%TO.C,U5*%
X154250000Y-116320700D03*
D25*
X156790000Y-107506900D03*
D20*
X159330000Y-116320700D03*
%TD*%
D18*
%TO.C,D18*%
X134978800Y-68301000D03*
X141888800Y-68301000D03*
%TD*%
D20*
%TO.C,U4*%
X159140000Y-74961200D03*
D25*
X156600000Y-83775000D03*
D20*
X154060000Y-74961200D03*
%TD*%
D31*
%TO.C,D2*%
X108226400Y-71950700D03*
X106326400Y-71950700D03*
X107276400Y-73825700D03*
%TD*%
D20*
%TO.C,U7*%
X142642200Y-116320700D03*
D25*
X145182200Y-107506900D03*
D20*
X147722200Y-116320700D03*
%TD*%
D16*
%TO.C,C11*%
X86983700Y-97529900D03*
X86983700Y-95979900D03*
%TD*%
D14*
%TO.C,C19*%
X115900000Y-102725000D03*
X117450000Y-102725000D03*
%TD*%
D17*
%TO.C,R7*%
X93517600Y-115152300D03*
X91867600Y-115152300D03*
%TD*%
%TO.C,R24*%
X131650000Y-76725000D03*
X130000000Y-76725000D03*
%TD*%
%TO.C,R30*%
X165196400Y-117412900D03*
X163546400Y-117412900D03*
%TD*%
D32*
%TO.C,CR1*%
X122255000Y-88761200D03*
X120985000Y-88761200D03*
X119715000Y-88761200D03*
X118445000Y-88761200D03*
X118445000Y-93688800D03*
X119715000Y-93688800D03*
X120985000Y-93688800D03*
X122255000Y-93688800D03*
%TD*%
D11*
%TO.C,D9*%
X83345100Y-124008500D03*
X84920100Y-124008500D03*
%TD*%
D10*
%TO.C,R9*%
X101701400Y-74225700D03*
X103351400Y-74225700D03*
%TD*%
D14*
%TO.C,C8*%
X99817500Y-93837500D03*
X101367500Y-93837500D03*
%TD*%
D17*
%TO.C,R18*%
X81300100Y-118008500D03*
X79650100Y-118008500D03*
%TD*%
D10*
%TO.C,R13*%
X105787800Y-84545300D03*
X107437800Y-84545300D03*
%TD*%
D33*
%TO.C,U1*%
X88447800Y-88747100D03*
X88947800Y-88747100D03*
X89447800Y-88747100D03*
X89947800Y-88747100D03*
X90447800Y-88747100D03*
X90947800Y-88747100D03*
X91447800Y-88747100D03*
X91947800Y-88747100D03*
X92447800Y-88747100D03*
X92947800Y-88747100D03*
X93447800Y-88747100D03*
X93947800Y-88747100D03*
X94447800Y-88747100D03*
X94947800Y-88747100D03*
X95447800Y-88747100D03*
X95947800Y-88747100D03*
D34*
X97872800Y-86822100D03*
X97872800Y-86322100D03*
X97872800Y-85822100D03*
X97872800Y-85322100D03*
X97872800Y-84822100D03*
X97872800Y-84322100D03*
X97872800Y-83822100D03*
X97872800Y-83322100D03*
X97872800Y-82822100D03*
X97872800Y-82322100D03*
X97872800Y-81822100D03*
X97872800Y-81322100D03*
X97872800Y-80822100D03*
X97872800Y-80322100D03*
X97872800Y-79822100D03*
X97872800Y-79322100D03*
D33*
X95947800Y-77397100D03*
X95447800Y-77397100D03*
X94947800Y-77397100D03*
X94447800Y-77397100D03*
X93947800Y-77397100D03*
X93447800Y-77397100D03*
X92947800Y-77397100D03*
X92447800Y-77397100D03*
X91947800Y-77397100D03*
X91447800Y-77397100D03*
X90947800Y-77397100D03*
X90447800Y-77397100D03*
X89947800Y-77397100D03*
X89447800Y-77397100D03*
X88947800Y-77397100D03*
X88447800Y-77397100D03*
D34*
X86522800Y-79322100D03*
X86522800Y-79822100D03*
X86522800Y-80322100D03*
X86522800Y-80822100D03*
X86522800Y-81322100D03*
X86522800Y-81822100D03*
X86522800Y-82322100D03*
X86522800Y-82822100D03*
X86522800Y-83322100D03*
X86522800Y-83822100D03*
X86522800Y-84322100D03*
X86522800Y-84822100D03*
X86522800Y-85322100D03*
X86522800Y-85822100D03*
X86522800Y-86322100D03*
X86522800Y-86822100D03*
%TD*%
D17*
%TO.C,R12*%
X107590200Y-87694900D03*
X105940200Y-87694900D03*
%TD*%
%TO.C,R32*%
X165110000Y-72872200D03*
X163460000Y-72872200D03*
%TD*%
%TO.C,R20*%
X81300100Y-124118500D03*
X79650100Y-124118500D03*
%TD*%
D20*
%TO.C,Q3*%
X136571600Y-62828300D03*
D21*
X139111600Y-51780300D03*
D20*
X141651600Y-62828300D03*
%TD*%
D15*
%TO.C,C9*%
X99001400Y-97825700D03*
X97451400Y-97825700D03*
%TD*%
D11*
%TO.C,FB1*%
X97050000Y-96025000D03*
X98625000Y-96025000D03*
%TD*%
D22*
%TO.C,D5*%
X130982400Y-48750200D03*
X129407400Y-48750200D03*
%TD*%
%TO.C,D3*%
X131262500Y-59299200D03*
X129687500Y-59299200D03*
%TD*%
D17*
%TO.C,R22*%
X81300100Y-130008500D03*
X79650100Y-130008500D03*
%TD*%
D10*
%TO.C,R27*%
X170825000Y-70425000D03*
X172475000Y-70425000D03*
%TD*%
D35*
%TO.C,F1*%
X131950000Y-98287500D03*
X131950000Y-91512500D03*
%TD*%
D19*
%TO.C,R11*%
X126250000Y-103550000D03*
X126250000Y-101900000D03*
%TD*%
D11*
%TO.C,D8*%
X83345100Y-121008500D03*
X84920100Y-121008500D03*
%TD*%
D13*
%TO.C,R8*%
X106276400Y-66575700D03*
X106276400Y-68225700D03*
%TD*%
D36*
%TO.C,SW1*%
X91061600Y-118630700D03*
X98261600Y-118630700D03*
X91061600Y-121630700D03*
X98261600Y-121630700D03*
%TD*%
D12*
%TO.C,D15*%
X147646000Y-127820600D03*
X147646000Y-120910600D03*
%TD*%
D14*
%TO.C,C1*%
X84575000Y-90775000D03*
X86125000Y-90775000D03*
%TD*%
D17*
%TO.C,R23*%
X81300100Y-133008500D03*
X79650100Y-133008500D03*
%TD*%
%TO.C,R14*%
X127900000Y-59275000D03*
X126250000Y-59275000D03*
%TD*%
D14*
%TO.C,C14*%
X97115000Y-74325000D03*
X98665000Y-74325000D03*
%TD*%
M02*
